<?xml version="1.0" standalone="no"?>
<!DOCTYPE svg PUBLIC "-//W3C//DTD SVG 20010904//EN"
 "http://www.w3.org/TR/2001/REC-SVG-20010904/DTD/svg10.dtd">
<svg version="1.0" xmlns="http://www.w3.org/2000/svg"
 width="1312.000000pt" height="1312.000000pt" viewBox="0 0 1312.000000 1312.000000"
 preserveAspectRatio="xMidYMid meet">
<metadata>
Created by potrace 1.14, written by Peter Selinger 2001-2017
</metadata>
<g transform="translate(0.000000,1312.000000) scale(0.100000,-0.100000)"
fill="#000000" stroke="none">
<path d="M4280 13115 c-8 -2 -49 -9 -90 -15 -168 -27 -364 -112 -505 -218
-236 -175 -397 -428 -461 -722 -18 -82 -19 -256 -19 -5600 0 -5344 1 -5518 19
-5600 94 -429 396 -767 805 -899 182 -59 26 -56 2536 -56 2217 0 2313 1 2395
19 485 106 845 473 941 961 12 59 14 923 14 5580 0 5339 -1 5513 -19 5595
-103 469 -441 814 -916 933 l-85 21 -2300 2 c-1265 1 -2307 0 -2315 -1z m4554
-490 c39 -8 108 -34 155 -57 71 -35 103 -59 181 -137 107 -108 165 -199 211
-334 64 -186 59 264 59 -5537 0 -5801 5 -5351 -59 -5537 -46 -133 -105 -227
-206 -328 -98 -98 -165 -142 -277 -183 l-73 -27 -2265 0 -2265 0 -73 27 c-112
41 -179 85 -277 183 -101 101 -160 195 -206 328 -64 186 -59 -264 -59 5537 0
5801 -5 5351 59 5537 46 133 105 227 206 328 118 118 222 177 360 205 22 4
1035 8 2250 9 1908 1 2219 -1 2279 -14z"/>
<path d="M5570 11870 l0 -130 990 0 990 0 0 130 0 130 -990 0 -990 0 0 -130z"/>
<path d="M4240 8745 l0 -2405 2323 2 2322 3 0 2400 0 2400 -2322 3 -2323 2 0
-2405z"/>
<path d="M4350 5555 l0 -385 643 2 642 3 0 380 0 380 -642 3 -643 2 0 -385z"/>
<path d="M5920 5555 l0 -385 640 0 640 0 0 385 0 385 -640 0 -640 0 0 -385z"/>
<path d="M7485 5927 c-3 -6 -4 -179 -3 -382 l3 -370 640 0 640 0 3 383 2 382
-640 0 c-504 0 -642 -3 -645 -13z"/>
<path d="M4350 4390 l0 -380 645 0 645 0 0 380 0 380 -645 0 -645 0 0 -380z"/>
<path d="M5920 4390 l0 -380 640 0 640 0 0 380 0 380 -640 0 -640 0 0 -380z"/>
<path d="M7480 4390 l0 -380 645 0 645 0 0 380 0 380 -645 0 -645 0 0 -380z"/>
<path d="M4357 3573 c-4 -3 -7 -177 -7 -385 l0 -378 645 0 645 0 -2 383 -3
382 -636 3 c-349 1 -639 -1 -642 -5z"/>
<path d="M5920 3195 l0 -385 640 0 640 0 0 385 0 385 -640 0 -640 0 0 -385z"/>
<path d="M7485 3568 c-3 -7 -4 -180 -3 -383 l3 -370 643 -3 642 -2 -2 382 -3
383 -638 3 c-506 2 -639 0 -642 -10z"/>
<path d="M4350 1995 l0 -385 643 2 642 3 0 380 0 380 -642 3 -643 2 0 -385z"/>
<path d="M5920 1995 l0 -385 640 0 640 0 0 385 0 385 -640 0 -640 0 0 -385z"/>
<path d="M7485 2368 c-3 -7 -4 -180 -3 -383 l3 -370 643 -3 642 -2 -2 382 -3
383 -638 3 c-506 2 -639 0 -642 -10z"/>
</g>
</svg>
