<svg height="800" viewBox="0 0 38.273 38.273" width="800" xmlns="http://www.w3.org/2000/svg"><path d="m20.621 10.484v-4.644c0-.808-.458-1.548-1.181-1.909-.722-.359-1.589-.279-2.236.206l-9.486 7.147c-.677.292-1.117.67-1.401 1.058l-5.468 4.119c-.537.405-.852 1.04-.849 1.712.002.673.322 1.305.862 1.706l16.355 12.133c.646.48 1.51.554 2.23.191.72-.362 1.174-1.1 1.174-1.905v-5.517h.038c3.842 0 10.687 1.089 13.366 8.386.311.846 1.116 1.397 2.001 1.397.079 0 .157-.004.236-.013.975-.108 1.751-.868 1.88-1.84.052-.394 1.208-9.682-4.461-16.23-3.06-3.533-7.446-5.546-13.06-5.997zm.038 10.031c-1.443 0-2.379.132-2.482.146-1.046.154-1.822 1.053-1.822 2.111v3.287l-10.66-7.907 3.555-2.678c.136-.104.259-.222.365-.351.155-.068.301-.152.437-.254l6.303-4.75v2.401c0 1.168.939 2.119 2.108 2.134 5.345.063 9.374 1.61 11.975 4.6 1.442 1.658 2.314 3.602 2.835 5.469-4.35-3.685-9.849-4.208-12.614-4.208z" fill="currentColor"/></svg>