<svg width="84" height="164" viewBox="0 0 84 164" fill="none" xmlns="http://www.w3.org/2000/svg">
<rect width="84" height="164" rx="15" fill="#DA251C"/>
<path d="M61 155C61 153.343 62.3431 152 64 152H69C70.6569 152 72 153.343 72 155C72 156.657 70.6569 158 69 158H64C62.3431 158 61 156.657 61 155Z" fill="white"/>
<path d="M68.7553 6H15.2538C10.133 6 6 10.9676 6 17.067V146.933C6 153.038 10.133 158 15.2538 158H68.7553C73.8579 158 78 153.038 78 146.933V17.067C78 10.9676 73.8579 6 68.7553 6ZM29.5964 14.0092H54.4081V17.2411H29.5964V14.0092ZM12.9415 24.679H71.0676V84.7423H12.9415V24.679ZM53.5524 113.922V104.324H69.5974V113.922H53.5524ZM69.602 119.298V128.896H53.557V119.298H69.602ZM53.5524 99.3405V89.7371H69.5974V99.3405H53.5524ZM30.4476 143.859H14.3935V134.266H30.4476V143.859ZM30.4476 128.891H14.3935V119.293H30.4476V128.891ZM30.4476 113.922H14.3935V104.324H30.4476V113.922ZM30.4476 99.3405H14.3935V89.7371H30.4476V99.3405ZM50.0339 143.859H33.9752V134.266H50.0293L50.0339 143.859ZM50.0339 128.891H33.9752V119.293H50.0293L50.0339 128.891ZM50.0339 113.922H33.9752V104.324H50.0293L50.0339 113.922ZM50.0339 99.3405H33.9752V89.7371H50.0293L50.0339 99.3405ZM53.5524 134.272H69.5974V143.864H53.5524V134.272ZM68.9055 157.559H64.9865C63.7074 157.559 62.6742 156.319 62.6742 154.801C62.6742 153.283 63.7074 152.058 64.9865 152.058H68.9055C70.1755 152.058 71.2178 153.283 71.2178 154.801C71.2178 156.319 70.18 157.559 68.9055 157.559Z" fill="white"/>
</svg>
